# xmcd
#
# Track frame offsets:
#	182
#	12450
#	26332
#	38927
#	45780
#	51392
#	64800
#	77237
#	89115
#	103322
#	115475
#	125042
#	138297
#	151502
#	165222
#	178085
#	188382
#	203630
#	214750
#	226717
#	238592
#	250907
#	263055
#	274355
#	285830
#
# Disc length: 4012 seconds
#
# Revision: 2
# Processed by: cddbd v1.5.2PL0 Copyright (c) Steve Scherf et al.
# Submitted via: EasyCDDAExtractor 8.1.4.1
#
DISCID=540faa19
DTITLE=Various Artist - Country roads
DYEAR=1900
DGENRE=Country
TTITLE0=Billie Jo Spears - You can never tell (c'est la vie)
TTITLE1=Patsy Cline - A church a courtroom and then goodbye
TTITLE2=Johnny Russell - Kaw liga
TTITLE3=Waylon Jennings - Its so easy
TTITLE4=Willie Nelson - The ghost
TTITLE5=Dottie West - D.I.V.O.R.C.E.
TTITLE6=Johnny Russell - Johnny russell - all I have to offer you (is me)
TTITLE7=Johnny Lee - Ramblin' rose
TTITLE8=Freddy Fender - Wasted days, and wasted nights
TTITLE9=Wanda Jackson - What in the world's come over you
TTITLE10=Lynn Anderson - Snowbird
TTITLE11=Don Williams - Where do I go from here
TTITLE12=Faron Young - Swinging doors
TTITLE13=Willie Nelson - A moment isn't very long
TTITLE14=Johnny Russell - Good hearted woman
TTITLE15=Carl Perkins - Daddy sang bass
TTITLE16=Jim Reeves - Making believe
TTITLE17=Waylon Jennings - Dream baby
TTITLE18=Kenny rogers - Me and bobby mcgee
TTITLE19=Don Williams - Follow me back to Louisville
TTITLE20=Stonewall Jackson - Ol  blue
TTITLE21=Billie Jo Spears - Misty blue
TTITLE22=Patsy Cline - Just out of reach
TTITLE23=Sammi Smith - Help me make it through the night
TTITLE24=Lynn Anderson - Desperado
EXTD=
EXTT0=
EXTT1=
EXTT2=
EXTT3=
EXTT4=
EXTT5=
EXTT6=
EXTT7=
EXTT8=
EXTT9=
EXTT10=
EXTT11=
EXTT12=
EXTT13=
EXTT14=
EXTT15=
EXTT16=
EXTT17=
EXTT18=
EXTT19=
EXTT20=
EXTT21=
EXTT22=
EXTT23=
EXTT24=
PLAYORDER=
